# xmcd
#
# Track frame offsets:
#	150
#	18607
#	47605
#	77822
#	97842
#	126862
#	188292
#	212482
#
# Disc length: 3058 seconds
#
# Revision: 3
# Processed by: cddbd v1.5.1PL0 Copyright (c) Steve Scherf et al.
# Submitted via: MusicWizard 7.0.2
#
DISCID=590bf008
DTITLE=John Lee Hooker - Ride Johnny Ride (On Stage 1992)
DYEAR=1900
DGENRE=Blues
TTITLE0=Ride Johnny Ride
TTITLE1=Crawling King Snake
TTITLE2=JI´m In A Mood For Love
TTITLE3=You Gimme So Much Trouble
TTITLE4=Born For Good Luck (Bad Luck Do Me No Harm)
TTITLE5=Higher And Higher
TTITLE6=Boogie Chillin'
TTITLE7=Red House
EXTD=
EXTT0=
EXTT1=
EXTT2=
EXTT3=
EXTT4=
EXTT5=
EXTT6=
EXTT7=
PLAYORDER=
